<svg height="512pt" viewBox="0 -84 512 512" width="512pt" xmlns="http://www.w3.org/2000/svg"><path d="m218.8125 245.996094h285.6875v-148.050782h-285.6875v-82.828124l-206.417969 156.855468 206.417969 156.851563zm0 0" fill="#e2fc85"/><path d="m42.394531 171.972656 176.417969-134.058594v-22.796874l-206.417969 156.855468 206.417969 156.851563v-22.796875zm0 0" fill="#6ad34d"/><path d="m226.3125 192.980469h-15v-15h15zm0-25h-15v-15h15zm0 0" fill="#fff"/><path d="m512 253.496094h-104.714844v-15h89.714844v-133.050782h-285.6875v-75.207031l-83.207031 63.226563-9.074219-11.941406 107.28125-81.523438v90.445312h285.6875zm0 0"/><path d="m226.3125 343.941406-226.3125-171.96875 103.105469-78.347656 9.074219 11.941406-87.386719 66.40625 186.519531 141.730469v-75.207031h175.972656v15h-160.972656zm0 0"/></svg>